<?xml version="1.0" standalone="no"?>
<svg xmlns="http://www.w3.org/2000/svg" xmlns:xlink="http://www.w3.org/1999/xlink" width="527pt" height="979pt" viewBox="0.00 0.00 527.14 979.00">
<g id="graph0" class="graph" transform="translate(62.34121733115114,894.5821497069669) scale(0.8524350479858837)" data-name="G">

<polygon fill="#2e3e56" stroke="none" points="-4,4 -4,-975 523.14,-975 523.14,4 -4,4" style=""/>
<g id="clust1" class="cluster" data-name="clusterNFTFractionalize">

<path fill="#445773" stroke="#445773" d="M23.4,-286C23.4,-286 499.14,-286 499.14,-286 505.14,-286 511.14,-292 511.14,-298 511.14,-298 511.14,-459 511.14,-459 511.14,-465 505.14,-471 499.14,-471 499.14,-471 23.4,-471 23.4,-471 17.4,-471 11.4,-465 11.4,-459 11.4,-459 11.4,-298 11.4,-298 11.4,-292 17.4,-286 23.4,-286" style=""/>
<text text-anchor="middle" x="261.27" y="-454.4" font-family="Times,serif" font-size="14.00" fill="#f0f0f0" style="">NFTFractionalize</text>
</g>
<g id="clust2" class="cluster" data-name="clusterIERC721Modified">

<path fill="#445773" stroke="#445773" d="M198.46,-93C198.46,-93 338.18,-93 338.18,-93 344.18,-93 350.18,-99 350.18,-105 350.18,-105 350.18,-266 350.18,-266 350.18,-272 344.18,-278 338.18,-278 338.18,-278 198.46,-278 198.46,-278 192.46,-278 186.46,-272 186.46,-266 186.46,-266 186.46,-105 186.46,-105 186.46,-99 192.46,-93 198.46,-93" style=""/>
<text text-anchor="middle" x="268.32" y="-261.4" font-family="Times,serif" font-size="14.00" fill="#f0f0f0" style="">IERC721Modified  (iface)</text>
</g>
<g id="clust3" class="cluster" data-name="clusterERC20Modified">

<path fill="#445773" stroke="#445773" d="M20,-479C20,-479 319.39,-479 319.39,-479 325.39,-479 331.39,-485 331.39,-491 331.39,-491 331.39,-814 331.39,-814 331.39,-820 325.39,-826 319.39,-826 319.39,-826 20,-826 20,-826 14,-826 8,-820 8,-814 8,-814 8,-491 8,-491 8,-485 14,-479 20,-479" style=""/>
<text text-anchor="middle" x="169.69" y="-809.4" font-family="Times,serif" font-size="14.00" fill="#f0f0f0" style="">ERC20Modified</text>
</g>
<g id="clust4" class="cluster" data-name="clustererc20TokenAddress">

<path fill="#3b4b63" stroke="#e8726d" stroke-dasharray="5,2" d="M215.82,-8C215.82,-8 319.82,-8 319.82,-8 325.82,-8 331.82,-14 331.82,-20 331.82,-20 331.82,-73 331.82,-73 331.82,-79 325.82,-85 319.82,-85 319.82,-85 215.82,-85 215.82,-85 209.82,-85 203.82,-79 203.82,-73 203.82,-73 203.82,-20 203.82,-20 203.82,-14 209.82,-8 215.82,-8" style=""/>
<text text-anchor="middle" x="267.82" y="-68.4" font-family="Times,serif" font-size="14.00" fill="#f0f0f0" style="">erc20TokenAddress</text>
</g>
<g id="clust5" class="cluster" data-name="cluster_01">

<polygon fill="#2e3e56" stroke="black" points="10.53,-834 10.53,-963 302.82,-963 302.82,-834 10.53,-834" style=""/>
<text text-anchor="middle" x="156.67" y="-946.4" font-family="Times,serif" font-size="14.00" style="">Legend</text>
</g>
<!-- NFTFractionalize.transferNFT -->
<g id="node1" class="node" pointer-events="visible" data-name="NFTFractionalize.transferNFT">

<ellipse fill="#ffbdb9" stroke="#ffbdb9" stroke-width="3" cx="83.53" cy="-420" rx="58.54" ry="18" style=""/>
<text text-anchor="middle" x="83.53" y="-415.8" font-family="Times,serif" font-size="14.00" style="">transferNFT</text>
</g>
<!-- NFTFractionalize._transferAndMint -->
<g id="node2" class="node" pointer-events="visible" data-name="NFTFractionalize._transferAndMint">

<ellipse fill="#edad56" stroke="#edad56" stroke-width="3" cx="267.82" cy="-375" rx="80.53" ry="18" style=""/>
<text text-anchor="middle" x="267.82" y="-370.8" font-family="Times,serif" font-size="14.00" style="">_transferAndMint</text>
</g>
<!-- NFTFractionalize.transferNFT&#45;&gt;NFTFractionalize._transferAndMint -->
<g id="edge3" class="edge" data-name="NFTFractionalize.transferNFT-&gt;NFTFractionalize._transferAndMint">

<path fill="none" stroke="#1bc6a6" stroke-width="2" d="M131.47,-408.41C151.76,-403.4 175.9,-397.44 198.14,-391.95" style=""/>
<polygon fill="#1bc6a6" stroke="#1bc6a6" stroke-width="2" points="198.81,-395.39 207.68,-389.6 197.13,-388.6 198.81,-395.39" style=""/>
</g>
<!-- NFTFractionalize._msgSender -->
<g id="node6" class="node" pointer-events="visible" data-name="NFTFractionalize._msgSender">

<ellipse fill="#edad56" stroke="#edad56" stroke-width="3" cx="444.36" cy="-420" rx="58.56" ry="18" style=""/>
<text text-anchor="middle" x="444.36" y="-415.8" font-family="Times,serif" font-size="14.00" style="">_msgSender</text>
</g>
<!-- NFTFractionalize.transferNFT&#45;&gt;NFTFractionalize._msgSender -->
<g id="edge2" class="edge" data-name="NFTFractionalize.transferNFT-&gt;NFTFractionalize._msgSender">

<path fill="none" stroke="#1bc6a6" stroke-width="2" d="M143.38,-420C205.82,-420 304.53,-420 371.52,-420" style=""/>
<polygon fill="#1bc6a6" stroke="#1bc6a6" stroke-width="2" points="371.45,-423.5 381.45,-420 371.45,-416.5 371.45,-423.5" style=""/>
</g>
<!-- IERC721Modified.ownerOf -->
<g id="node8" class="node" pointer-events="visible" data-name="IERC721Modified.ownerOf">

<ellipse fill="#edad56" stroke="#edad56" stroke-width="3" cx="267.82" cy="-227" rx="45.22" ry="18" style=""/>
<text text-anchor="middle" x="267.82" y="-222.8" font-family="Times,serif" font-size="14.00" style="">ownerOf</text>
</g>
<!-- NFTFractionalize.transferNFT&#45;&gt;IERC721Modified.ownerOf -->
<g id="edge1" class="edge" data-name="NFTFractionalize.transferNFT-&gt;IERC721Modified.ownerOf">

<path fill="none" stroke="white" stroke-width="2" d="M130.15,-407.76C137.9,-404.04 145.29,-399.22 151.05,-393 186.24,-355.01 155.55,-323.54 186.46,-282 196.73,-268.19 211.54,-256.67 225.65,-247.8" style=""/>
<polygon fill="white" stroke="white" stroke-width="2" points="227.29,-250.9 234.12,-242.8 223.73,-244.87 227.29,-250.9" style=""/>
</g>
<!-- NFTFractionalize._transferAndMint&#45;&gt;NFTFractionalize._msgSender -->
<g id="edge4" class="edge" data-name="NFTFractionalize._transferAndMint-&gt;NFTFractionalize._msgSender">

<path fill="none" stroke="#1bc6a6" stroke-width="2" d="M323.57,-389.11C342.92,-394.1 364.77,-399.74 384.45,-404.81" style=""/>
<polygon fill="#1bc6a6" stroke="#1bc6a6" stroke-width="2" points="383.54,-408.19 394.1,-407.3 385.29,-401.41 383.54,-408.19" style=""/>
</g>
<!-- NFTFractionalize.address -->
<g id="node7" class="node" pointer-events="visible" data-name="NFTFractionalize.address">

<ellipse fill="#edad56" stroke="#edad56" stroke-width="3" cx="444.36" cy="-366" rx="40" ry="18" style=""/>
<text text-anchor="middle" x="444.36" y="-361.8" font-family="Times,serif" font-size="14.00" style="">address</text>
</g>
<!-- NFTFractionalize._transferAndMint&#45;&gt;NFTFractionalize.address -->
<g id="edge5" class="edge" data-name="NFTFractionalize._transferAndMint-&gt;NFTFractionalize.address">

<path fill="none" stroke="#1bc6a6" stroke-width="2" d="M319.77,-359.97C343.6,-357.22 371.83,-355.82 395.29,-356.27" style=""/>
<polygon fill="#1bc6a6" stroke="#1bc6a6" stroke-width="2" points="394.98,-359.76 405.1,-356.62 395.23,-352.77 394.98,-359.76" style=""/>
</g>
<!-- NFTFractionalize._transferAndMint&#45;&gt;NFTFractionalize.address -->
<g id="edge6" class="edge" data-name="NFTFractionalize._transferAndMint-&gt;NFTFractionalize.address">

<path fill="none" stroke="#1bc6a6" stroke-width="2" d="M347.92,-370.92C362.26,-370.18 376.9,-369.43 390.27,-368.74" style=""/>
<polygon fill="#1bc6a6" stroke="#1bc6a6" stroke-width="2" points="390.33,-372.24 400.13,-368.23 389.96,-365.25 390.33,-372.24" style=""/>
</g>
<!-- NFTFractionalize._transferAndMint&#45;&gt;NFTFractionalize.address -->
<g id="edge7" class="edge" data-name="NFTFractionalize._transferAndMint-&gt;NFTFractionalize.address">

<path fill="none" stroke="#1bc6a6" stroke-width="2" d="M339.06,-384.65C359.49,-384.15 381.21,-382.57 399.52,-380.15" style=""/>
<polygon fill="#1bc6a6" stroke="#1bc6a6" stroke-width="2" points="399.81,-383.64 409.18,-378.69 398.77,-376.72 399.81,-383.64" style=""/>
</g>
<!-- NFTFractionalize.putForSale -->
<g id="node3" class="node" pointer-events="visible" data-name="NFTFractionalize.putForSale">

<ellipse fill="#ffbdb9" stroke="#ffbdb9" stroke-width="3" cx="83.53" cy="-366" rx="53.34" ry="18" style=""/>
<text text-anchor="middle" x="83.53" y="-361.8" font-family="Times,serif" font-size="14.00" style="">putForSale</text>
</g>
<!-- erc20TokenAddress.call -->
<g id="node22" class="node" pointer-events="visible" data-name="erc20TokenAddress.call">

<ellipse fill="#edad56" stroke="#edad56" stroke-width="3" cx="267.82" cy="-34" rx="27" ry="18" style=""/>
<text text-anchor="middle" x="267.82" y="-29.8" font-family="Times,serif" font-size="14.00" style="">call</text>
</g>
<!-- NFTFractionalize.putForSale&#45;&gt;erc20TokenAddress.call -->
<g id="edge8" class="edge" data-name="NFTFractionalize.putForSale-&gt;erc20TokenAddress.call">

<path fill="none" stroke="white" stroke-width="2" d="M129.32,-355.33C137.64,-351.45 145.45,-346.17 151.05,-339 220.12,-250.55 127.26,-184.34 186.46,-89 197.15,-71.78 215.46,-58.62 231.9,-49.51" style=""/>
<polygon fill="white" stroke="white" stroke-width="2" points="233.42,-52.65 240.71,-44.96 230.22,-46.43 233.42,-52.65" style=""/>
</g>
<!-- NFTFractionalize.purchase -->
<g id="node4" class="node" pointer-events="visible" data-name="NFTFractionalize.purchase">

<ellipse fill="#ffbdb9" stroke="brown" stroke-width="3" cx="267.82" cy="-321" rx="45.21" ry="18" style=""/>
<text text-anchor="middle" x="267.82" y="-316.8" font-family="Times,serif" font-size="14.00" style="">purchase</text>
</g>
<!-- NFTFractionalize.purchase&#45;&gt;NFTFractionalize.address -->
<g id="edge9" class="edge" data-name="NFTFractionalize.purchase-&gt;NFTFractionalize.address">

<path fill="none" stroke="#1bc6a6" stroke-width="2" d="M307.56,-330.99C333.48,-337.67 367.78,-346.51 395.43,-353.64" style=""/>
<polygon fill="#1bc6a6" stroke="#1bc6a6" stroke-width="2" points="394.51,-357.02 405.07,-356.13 396.26,-350.24 394.51,-357.02" style=""/>
</g>
<!-- NFTFractionalize.redeemToken -->
<g id="node5" class="node" pointer-events="visible" data-name="NFTFractionalize.redeemToken">

<ellipse fill="#ffbdb9" stroke="#ffbdb9" stroke-width="3" cx="83.53" cy="-312" rx="64.24" ry="18" style=""/>
<text text-anchor="middle" x="83.53" y="-307.8" font-family="Times,serif" font-size="14.00" style="">redeemToken</text>
</g>
<!-- IERC721Modified.name -->
<g id="node9" class="node" pointer-events="visible" data-name="IERC721Modified.name">

<ellipse fill="#ffbdb9" stroke="#ffbdb9" stroke-width="3" cx="267.82" cy="-173" rx="31.9" ry="18" style=""/>
<text text-anchor="middle" x="267.82" y="-168.8" font-family="Times,serif" font-size="14.00" style="">name</text>
</g>
<!-- IERC721Modified.symbol -->
<g id="node10" class="node" pointer-events="visible" data-name="IERC721Modified.symbol">

<ellipse fill="#ffbdb9" stroke="#ffbdb9" stroke-width="3" cx="267.82" cy="-119" rx="39.45" ry="18" style=""/>
<text text-anchor="middle" x="267.82" y="-114.8" font-family="Times,serif" font-size="14.00" style="">symbol</text>
</g>
<!-- ERC20Modified.onlyOwner -->
<g id="node11" class="node" pointer-events="visible" data-name="ERC20Modified.onlyOwner">

<polygon fill="#edad56" stroke="#1bc6a6" stroke-width="3" points="142.47,-763.54 142.47,-778.46 107.94,-789 59.11,-789 24.58,-778.46 24.58,-763.54 59.11,-753 107.94,-753 142.47,-763.54" style=""/>
<polygon fill="none" stroke="#1bc6a6" stroke-width="3" points="146.47,-760.58 146.47,-781.42 108.54,-793 58.51,-793 20.58,-781.42 20.58,-760.58 58.51,-749 108.54,-749 146.47,-760.58" style=""/>
<text text-anchor="middle" x="83.53" y="-766.8" font-family="Times,serif" font-size="14.00" style="">onlyOwner</text>
</g>
<!-- ERC20Modified.&lt;Constructor&gt; -->
<g id="node12" class="node" pointer-events="visible" data-name="ERC20Modified.&lt;Constructor&gt;">

<ellipse fill="#ff9797" stroke="#ff9797" stroke-width="3" cx="83.53" cy="-713" rx="67.55" ry="18" style=""/>
<text text-anchor="middle" x="83.53" y="-708.8" font-family="Times,serif" font-size="14.00" style="">&lt;Constructor&gt;</text>
</g>
<!-- ERC20Modified._mint -->
<g id="node16" class="node" pointer-events="visible" data-name="ERC20Modified._mint">

<ellipse fill="#edad56" stroke="#edad56" stroke-width="3" cx="267.82" cy="-775" rx="33.64" ry="18" style=""/>
<text text-anchor="middle" x="267.82" y="-770.8" font-family="Times,serif" font-size="14.00" style="">_mint</text>
</g>
<!-- ERC20Modified.&lt;Constructor&gt;&#45;&gt;ERC20Modified._mint -->
<g id="edge10" class="edge" data-name="ERC20Modified.&lt;Constructor&gt;-&gt;ERC20Modified._mint">

<path fill="none" stroke="#1bc6a6" stroke-width="2" d="M127.65,-727.88C145.8,-734.12 167.15,-741.44 186.46,-748 199.21,-752.33 213.11,-757.02 225.71,-761.25" style=""/>
<polygon fill="#1bc6a6" stroke="#1bc6a6" stroke-width="2" points="224.33,-764.47 234.92,-764.34 226.55,-757.84 224.33,-764.47" style=""/>
</g>
<!-- ERC20Modified.putForSale -->
<g id="node13" class="node" pointer-events="visible" data-name="ERC20Modified.putForSale">

<ellipse fill="#ff9797" stroke="#ff9797" stroke-width="3" cx="83.53" cy="-659" rx="53.34" ry="18" style=""/>
<text text-anchor="middle" x="83.53" y="-654.8" font-family="Times,serif" font-size="14.00" style="">putForSale</text>
</g>
<!-- ERC20Modified.purchase -->
<g id="node14" class="node" pointer-events="visible" data-name="ERC20Modified.purchase">

<ellipse fill="#ff9797" stroke="brown" stroke-width="3" cx="83.53" cy="-605" rx="45.21" ry="18" style=""/>
<text text-anchor="middle" x="83.53" y="-600.8" font-family="Times,serif" font-size="14.00" style="">purchase</text>
</g>
<!-- ERC20Modified.redeemToken -->
<g id="node15" class="node" pointer-events="visible" data-name="ERC20Modified.redeemToken">

<ellipse fill="#ff9797" stroke="#ff9797" stroke-width="3" cx="83.53" cy="-551" rx="64.24" ry="18" style=""/>
<text text-anchor="middle" x="83.53" y="-546.8" font-family="Times,serif" font-size="14.00" style="">redeemToken</text>
</g>
<!-- ERC20Modified.IERC20 -->
<g id="node17" class="node" pointer-events="visible" data-name="ERC20Modified.IERC20">

<ellipse fill="#edad56" stroke="#edad56" stroke-width="3" cx="267.82" cy="-505" rx="42.88" ry="18" style=""/>
<text text-anchor="middle" x="267.82" y="-500.8" font-family="Times,serif" font-size="14.00" style="">IERC20</text>
</g>
<!-- ERC20Modified.redeemToken&#45;&gt;ERC20Modified.IERC20 -->
<g id="edge11" class="edge" data-name="ERC20Modified.redeemToken-&gt;ERC20Modified.IERC20">

<path fill="none" stroke="#1bc6a6" stroke-width="2" d="M133.86,-538.55C159.56,-532.06 190.94,-524.15 216.75,-517.63" style=""/>
<polygon fill="#1bc6a6" stroke="#1bc6a6" stroke-width="2" points="217.53,-521.05 226.37,-515.21 215.82,-514.26 217.53,-521.05" style=""/>
</g>
<!-- ERC20Modified.address -->
<g id="node18" class="node" pointer-events="visible" data-name="ERC20Modified.address">

<ellipse fill="#edad56" stroke="#edad56" stroke-width="3" cx="267.82" cy="-559" rx="40" ry="18" style=""/>
<text text-anchor="middle" x="267.82" y="-554.8" font-family="Times,serif" font-size="14.00" style="">address</text>
</g>
<!-- ERC20Modified.redeemToken&#45;&gt;ERC20Modified.address -->
<g id="edge12" class="edge" data-name="ERC20Modified.redeemToken-&gt;ERC20Modified.address">

<path fill="none" stroke="#1bc6a6" stroke-width="2" d="M148.54,-553.81C169.83,-554.74 193.29,-555.77 213.67,-556.67" style=""/>
<polygon fill="#1bc6a6" stroke="#1bc6a6" stroke-width="2" points="213.4,-560.16 223.54,-557.1 213.7,-553.17 213.4,-560.16" style=""/>
</g>
<!-- ERC20Modified.totalSupply -->
<g id="node19" class="node" pointer-events="visible" data-name="ERC20Modified.totalSupply">

<ellipse fill="#edad56" stroke="#edad56" stroke-width="3" cx="267.82" cy="-613" rx="55.64" ry="18" style=""/>
<text text-anchor="middle" x="267.82" y="-608.8" font-family="Times,serif" font-size="14.00" style="">totalSupply</text>
</g>
<!-- ERC20Modified.redeemToken&#45;&gt;ERC20Modified.totalSupply -->
<g id="edge13" class="edge" data-name="ERC20Modified.redeemToken-&gt;ERC20Modified.totalSupply">

<path fill="none" stroke="#1bc6a6" stroke-width="2" d="M126.66,-565.54C145.02,-571.85 166.79,-579.32 186.46,-586 195.57,-589.09 205.26,-592.37 214.65,-595.53" style=""/>
<polygon fill="#1bc6a6" stroke="#1bc6a6" stroke-width="2" points="213.28,-598.76 223.87,-598.63 215.51,-592.12 213.28,-598.76" style=""/>
</g>
<!-- ERC20Modified._burn -->
<g id="node20" class="node" pointer-events="visible" data-name="ERC20Modified._burn">

<ellipse fill="#edad56" stroke="#edad56" stroke-width="3" cx="267.82" cy="-667" rx="33.63" ry="18" style=""/>
<text text-anchor="middle" x="267.82" y="-662.8" font-family="Times,serif" font-size="14.00" style="">_burn</text>
</g>
<!-- ERC20Modified.redeemToken&#45;&gt;ERC20Modified._burn -->
<g id="edge14" class="edge" data-name="ERC20Modified.redeemToken-&gt;ERC20Modified._burn">

<path fill="none" stroke="#1bc6a6" stroke-width="2" d="M129.83,-564.59C137.44,-568.17 144.86,-572.58 151.05,-578 174.93,-598.89 161.95,-619.85 186.46,-640 196.69,-648.41 209.66,-654.25 222.18,-658.28" style=""/>
<polygon fill="#1bc6a6" stroke="#1bc6a6" stroke-width="2" points="220.94,-661.56 231.51,-660.91 222.84,-654.83 220.94,-661.56" style=""/>
</g>
<!-- ERC20Modified.payable -->
<g id="node21" class="node" pointer-events="visible" data-name="ERC20Modified.payable">

<ellipse fill="#edad56" stroke="#edad56" stroke-width="3" cx="267.82" cy="-721" rx="41.13" ry="18" style=""/>
<text text-anchor="middle" x="267.82" y="-716.8" font-family="Times,serif" font-size="14.00" style="">payable</text>
</g>
<!-- ERC20Modified.redeemToken&#45;&gt;ERC20Modified.payable -->
<g id="edge15" class="edge" data-name="ERC20Modified.redeemToken-&gt;ERC20Modified.payable">

<path fill="none" stroke="#1bc6a6" stroke-width="2" d="M131.91,-564.02C139.03,-567.63 145.75,-572.21 151.05,-578 187.43,-617.78 148.88,-655.36 186.46,-694 194.2,-701.96 204.36,-707.58 214.85,-711.54" style=""/>
<polygon fill="#1bc6a6" stroke="#1bc6a6" stroke-width="2" points="213.7,-714.84 224.29,-714.54 215.82,-708.17 213.7,-714.84" style=""/>
</g>
<!-- key -->
<g id="node23" class="node" pointer-events="visible" data-name="key">

<polygon fill="#edad56" stroke="none" stroke-width="3" points="148.53,-930 18.53,-930 18.53,-842 148.53,-842 148.53,-930" style=""/>
<text text-anchor="start" x="68.16" y="-911.4" font-family="Times,serif" font-size="14.00" style="">Internal Call</text>
<text text-anchor="start" x="64.27" y="-891.4" font-family="Times,serif" font-size="14.00" style="">External Call</text>
<text text-anchor="start" x="41.73" y="-871.4" font-family="Times,serif" font-size="14.00" style="">Defined Contract</text>
<text text-anchor="start" x="28.13" y="-851.4" font-family="Times,serif" font-size="14.00" style="">Undefined Contract</text>
</g>
<!-- key2 -->
<g id="node24" class="node" pointer-events="visible" data-name="key2">

<polygon fill="#edad56" stroke="none" stroke-width="3" points="294.82,-930 240.82,-930 240.82,-842 294.82,-842 294.82,-930" style=""/>
<text text-anchor="start" x="257.82" y="-911.4" font-family="Times,serif" font-size="14.00" style="">   </text>
<text text-anchor="start" x="257.82" y="-891.4" font-family="Times,serif" font-size="14.00" style="">   </text>
<polygon fill="#445773" stroke="none" points="255.82,-866 255.82,-886 280.82,-886 280.82,-866 255.82,-866" style=""/>
<text text-anchor="start" x="257.82" y="-871.4" font-family="Times,serif" font-size="14.00" style="">   </text>
<polygon fill="none" stroke="#e8726d" points="257.82,-848 257.82,-864 278.82,-864 278.82,-848 257.82,-848" style=""/>
</g>
<!-- key&#45;&gt;key2 -->
<g id="edge16" class="edge" data-name="key-&gt;key2">

<path fill="none" stroke="#1bc6a6" stroke-width="2" d="M141.53,-916C187.26,-916 201.84,-916 241.85,-916" style=""/>
<polygon fill="#1bc6a6" stroke="#1bc6a6" stroke-width="2" points="241.79,-919.5 251.79,-916 241.79,-912.5 241.79,-919.5" style=""/>
</g>
<!-- key&#45;&gt;key2 -->
<g id="edge17" class="edge" data-name="key-&gt;key2">

<path fill="none" stroke="white" stroke-width="2" d="M141.53,-896C187.26,-896 201.84,-896 241.85,-896" style=""/>
<polygon fill="white" stroke="white" stroke-width="2" points="241.79,-899.5 251.79,-896 241.79,-892.5 241.79,-899.5" style=""/>
</g>
</g>
</svg>